<?xml version="1.0" encoding="utf-8"?>
<!-- Generator: Adobe Illustrator 23.0.4, SVG Export Plug-In . SVG Version: 6.00 Build 0)  -->
<svg version="1.1" xmlns="http://www.w3.org/2000/svg" xmlns:xlink="http://www.w3.org/1999/xlink" x="0px" y="0px"
	 viewBox="0 0 374 60" style="enable-background:new 0 0 374 60;" xml:space="preserve">
<style type="text/css">
	.st0{fill:#EFD047;}
	.st1{fill:#3E4D3E;}
	.st2{display:none;}
</style>
<g id="Layer_1">
	<path class="st0" d="M15.5,52.1c0,4.3-3.5,7.7-7.7,7.7c-4.3,0-7.7-3.5-7.7-7.7s3.5-7.7,7.7-7.7C12,44.4,15.5,47.8,15.5,52.1"/>
	<rect x="26.5" y="1.5" class="st1" width="12.3" height="57"/>
	<path class="st1" d="M136.1,23.2v35.4h-12.3V24c0-8-4.3-12.4-11.1-12.4c-7.3,0-12.4,4.7-12.4,15.1v31.9H88V24c0-8-4-12.4-10.7-12.4
		c-7,0-12.7,4.7-12.7,15.1v31.9H52.3v-57h12.3v6.8C68.3,2.7,73.8,0,80.9,0c7.4,0,12.9,3.3,16.2,9c3.8-5.9,9.8-9,17.4-9
		C127.4,0,136.1,8.9,136.1,23.2"/>
	<path class="st1" d="M233,23.2v35.4h-12.3V24c0-8-4.3-12.4-11.1-12.4c-7.3,0-12.4,4.7-12.4,15.1v31.9h-12.3V24
		c0-8-4-12.4-10.7-12.4c-7,0-12.7,4.7-12.7,15.1v31.9h-12.3v-57h12.3v6.8c3.6-5.6,9.2-8.3,16.3-8.3c7.4,0,12.9,3.3,16.2,9
		c3.8-5.9,9.8-9,17.4-9C224.3,0,233,8.9,233,23.2"/>
	<path class="st1" d="M274.8,11.2c7.4,0,14.6,4.2,16.3,14h-33.5C259.3,16.7,265.6,11.2,274.8,11.2 M275.9,48.7
		c-9.1,0-16.3-4.6-18.2-13.5h45.4c0.2-1.6,0.5-3.4,0.5-5.1c0-16.4-11.6-30.1-28.6-30.1c-17.9,0-30.1,13.1-30.1,30
		c0,17.1,12.2,30,31,30c10,0,17.8-3.7,23.1-10l-8.3-8.3C287.9,45.6,282.8,48.7,275.9,48.7"/>
	<g>
		<path class="st1" d="M361.7,30c0-10.4-7.8-18-17.8-18c-10,0-17.8,7.6-17.8,18s7.8,18,17.8,18C354,48,361.7,40.4,361.7,30
			 M313.8,30c0-17,13.5-30,30.1-30C360.7,0,374,13,374,30c0,16.9-13.3,30-30.1,30C327.3,60,313.8,46.9,313.8,30"/>
	</g>
</g>
<g id="Layer_2" class="st2">
</g>
</svg>
